<svg width="20" height="20" viewBox="0 0 20 20" fill="none" xmlns="http://www.w3.org/2000/svg">
<path d="M10 14.1665V17.4998" stroke="#5A5A5A" stroke-width="1.5" stroke-linecap="round" stroke-linejoin="round"/>
<path d="M12.6667 4.08333L11.9167 3.75" stroke="#5A5A5A" stroke-width="1.5" stroke-linecap="round" stroke-linejoin="round"/>
<path d="M12.6667 5.9165L11.9167 6.24984" stroke="#5A5A5A" stroke-width="1.5" stroke-linecap="round" stroke-linejoin="round"/>
<path d="M14.0833 2.6665L13.75 1.9165" stroke="#5A5A5A" stroke-width="1.5" stroke-linecap="round" stroke-linejoin="round"/>
<path d="M14.0833 7.3335L13.75 8.0835" stroke="#5A5A5A" stroke-width="1.5" stroke-linecap="round" stroke-linejoin="round"/>
<path d="M16.2501 1.9165L15.9167 2.6665" stroke="#5A5A5A" stroke-width="1.5" stroke-linecap="round" stroke-linejoin="round"/>
<path d="M16.2501 8.0835L15.9167 7.3335" stroke="#5A5A5A" stroke-width="1.5" stroke-linecap="round" stroke-linejoin="round"/>
<path d="M18.0833 3.75L17.3333 4.08333" stroke="#5A5A5A" stroke-width="1.5" stroke-linecap="round" stroke-linejoin="round"/>
<path d="M18.0833 6.24984L17.3333 5.9165" stroke="#5A5A5A" stroke-width="1.5" stroke-linecap="round" stroke-linejoin="round"/>
<path d="M18.3334 10.8333V12.5C18.3334 12.942 18.1578 13.366 17.8453 13.6785C17.5327 13.9911 17.1088 14.1667 16.6667 14.1667H3.33341C2.89139 14.1667 2.46746 13.9911 2.1549 13.6785C1.84234 13.366 1.66675 12.942 1.66675 12.5V4.16667C1.66675 3.72464 1.84234 3.30072 2.1549 2.98816C2.46746 2.67559 2.89139 2.5 3.33341 2.5H9.16675" stroke="#5A5A5A" stroke-width="1.5" stroke-linecap="round" stroke-linejoin="round"/>
<path d="M6.66675 17.5H13.3334" stroke="#5A5A5A" stroke-width="1.5" stroke-linecap="round" stroke-linejoin="round"/>
<path d="M15 7.5C16.3807 7.5 17.5 6.38071 17.5 5C17.5 3.61929 16.3807 2.5 15 2.5C13.6193 2.5 12.5 3.61929 12.5 5C12.5 6.38071 13.6193 7.5 15 7.5Z" stroke="#5A5A5A" stroke-width="1.5" stroke-linecap="round" stroke-linejoin="round"/>
</svg>
